{"accessors" : [{"bufferView" : 0, "byteOffset" : 0, "componentType" : 5123, "count" : 62868, "type" : "SCALAR", "max" : [52091], "min" : [0]}, {"bufferView" : 1, "byteOffset" : 0, "componentType" : 5126, "count" : 52092, "type" : "VEC3", "max" : [-5.975091934204102, 7.753268718719482, 15.059290885925293], "min" : [-7.975091934204102, 5.753268718719482, 8.075291633605957]}, {"bufferView" : 1, "byteOffset" : 12, "componentType" : 5126, "count" : 52092, "type" : "VEC3", "max" : [1.0000044107437134, 1.0000044107437134, 1.0000044107437134], "min" : [-1.0000044107437134, -1.0000044107437134, -1.0000044107437134]}], "asset" : {"generator" : "Aspose.3D 20.12.2", "version" : "2.0"}, "buffers" : [{"uri" : "buffer.bin", "byteLength" : 1634576}], "bufferViews" : [{"buffer" : 0, "byteOffset" : 0, "byteLength" : 125736, "target" : 34963}, {"buffer" : 0, "byteOffset" : 125740, "byteLength" : 1508832, "byteStride" : 24, "target" : 34962}], "meshes" : [{"primitives" : [{"attributes" : {"POSITION" : 1, "NORMAL" : 2}, "indices" : 0, "mode" : 4}]}], "nodes" : [{"mesh" : 0, "name" : ""}], "scene" : 0, "scenes" : [{"nodes" : [0]}]}